<svg width="38" height="28" viewBox="0 0 38 28" fill="none" xmlns="http://www.w3.org/2000/svg">
<path d="M34.75 0.875H3.25C2.55381 0.875 1.88613 1.15156 1.39384 1.64384C0.901562 2.13613 0.625 2.80381 0.625 3.5V24.5C0.625 25.1962 0.901562 25.8639 1.39384 26.3562C1.88613 26.8484 2.55381 27.125 3.25 27.125H34.75C35.4462 27.125 36.1139 26.8484 36.6062 26.3562C37.0984 25.8639 37.375 25.1962 37.375 24.5V3.5C37.375 2.80381 37.0984 2.13613 36.6062 1.64384C36.1139 1.15156 35.4462 0.875 34.75 0.875V0.875ZM31.8625 3.5L19 12.3987L6.1375 3.5H31.8625ZM3.25 24.5V4.69437L18.2519 15.0762C18.4716 15.2287 18.7326 15.3103 19 15.3103C19.2674 15.3103 19.5284 15.2287 19.7481 15.0762L34.75 4.69437V24.5H3.25Z" fill="#ED1C1C"/>
</svg>
