<svg width="24" height="24" viewBox="0 0 24 24" fill="none" xmlns="http://www.w3.org/2000/svg">
<path d="M12 0.47998C5.6376 0.47998 0.479996 5.63758 0.479996 12C0.479996 18.3624 5.6376 23.52 12 23.52C18.3624 23.52 23.52 18.3624 23.52 12C23.52 5.63758 18.3624 0.47998 12 0.47998ZM9.18 16.7748H6.8472V9.26758H9.18V16.7748ZM7.9992 8.34598C7.2624 8.34598 6.786 7.82398 6.786 7.17838C6.786 6.51958 7.2768 6.01318 8.0292 6.01318C8.7816 6.01318 9.2424 6.51958 9.2568 7.17838C9.2568 7.82398 8.7816 8.34598 7.9992 8.34598ZM17.7 16.7748H15.3672V12.6144C15.3672 11.646 15.0288 10.9884 14.1852 10.9884C13.5408 10.9884 13.158 11.4336 12.9888 11.862C12.9264 12.0144 12.9108 12.2304 12.9108 12.4452V16.7736H10.5768V11.6616C10.5768 10.7244 10.5468 9.94078 10.5156 9.26638H12.5424L12.6492 10.3092H12.696C13.0032 9.81958 13.7556 9.09718 15.0144 9.09718C16.5492 9.09718 17.7 10.1256 17.7 12.336V16.7748V16.7748Z" fill="#676767"/>
</svg>
