<svg width="30" height="38" viewBox="0 0 30 38" fill="none" xmlns="http://www.w3.org/2000/svg">
<path d="M15 20.75C17.8995 20.75 20.25 18.3995 20.25 15.5C20.25 12.6005 17.8995 10.25 15 10.25C12.1005 10.25 9.75 12.6005 9.75 15.5C9.75 18.3995 12.1005 20.75 15 20.75Z" stroke="#ED1C1C" stroke-width="2" stroke-linecap="round" stroke-linejoin="round"/>
<path d="M15 1.5C11.287 1.5 7.72601 2.975 5.10051 5.60051C2.475 8.22601 1 11.787 1 15.5C1 18.811 1.7035 20.9775 3.625 23.375L15 36.5L26.375 23.375C28.2965 20.9775 29 18.811 29 15.5C29 11.787 27.525 8.22601 24.8995 5.60051C22.274 2.975 18.713 1.5 15 1.5V1.5Z" stroke="#ED1C1C" stroke-width="2" stroke-linecap="round" stroke-linejoin="round"/>
</svg>
