<svg width="38" height="38" viewBox="0 0 38 38" fill="none" xmlns="http://www.w3.org/2000/svg">
<path d="M16.4695 8.91981L10.5493 2.08606C9.86675 1.29856 8.6155 1.30206 7.82275 2.09656L2.95425 6.97381C1.50525 8.42456 1.0905 10.5788 1.92875 12.3061C6.93658 22.6748 15.2988 31.0487 25.6605 36.0711C27.386 36.9093 29.5385 36.4946 30.9875 35.0438L35.9015 30.1211C36.6978 29.3248 36.6995 28.0666 35.905 27.3841L29.045 21.4953C28.3275 20.8793 27.2128 20.9598 26.4935 21.6808L24.1065 24.0713C23.9843 24.1994 23.8234 24.2838 23.6486 24.3116C23.4738 24.3394 23.2947 24.3091 23.1388 24.2253C19.237 21.9785 16.0005 18.7377 13.7588 14.8331C13.6748 14.6769 13.6444 14.4975 13.6722 14.3223C13.7 14.1472 13.7845 13.986 13.9128 13.8636L16.2928 11.4818C17.0138 10.7573 17.0925 9.63731 16.4695 8.91806V8.91981Z" stroke="#ED1C1C" stroke-width="2" stroke-linecap="round" stroke-linejoin="round"/>
</svg>
