<svg width="24" height="24" viewBox="0 0 24 24" fill="none" xmlns="http://www.w3.org/2000/svg">
<path d="M0.512151 11.8564C0.511588 13.8728 1.04259 15.8418 2.05228 17.5772L0.415588 23.5067L6.53109 21.9156C8.22255 22.8293 10.1177 23.3081 12.0436 23.3082H12.0487C18.4063 23.3082 23.5816 18.1749 23.5843 11.8654C23.5855 8.80798 22.3867 5.93301 20.2085 3.77003C18.0307 1.60724 15.1342 0.415519 12.0482 0.414124C5.68978 0.414124 0.51487 5.54715 0.512245 11.8564" fill="#676767"/>
<path d="M0.100313 11.8527C0.0996563 13.9417 0.649687 15.981 1.69537 17.7786L0 23.9207L6.33478 22.2726C8.08022 23.2168 10.0454 23.7147 12.0451 23.7154H12.0502C18.636 23.7154 23.9972 18.3975 24 11.8621C24.0011 8.69488 22.7591 5.71656 20.5031 3.47609C18.2468 1.23591 15.2468 0.00130233 12.0502 0C5.46337 0 0.103031 5.31721 0.100406 11.8527H0.100313ZM3.87281 17.469L3.63628 17.0965C2.64197 15.5277 2.11716 13.7149 2.11791 11.8534C2.12006 6.4213 6.57544 2.00186 12.054 2.00186C14.7071 2.00298 17.2005 3.02921 19.0759 4.89116C20.9512 6.7533 21.9831 9.22865 21.9824 11.8614C21.98 17.2935 17.5245 21.7135 12.0502 21.7135H12.0463C10.2638 21.7126 8.51569 21.2376 6.99112 20.34L6.62831 20.1265L2.86913 21.1045L3.87281 17.4689V17.469Z" fill="url(#paint0_linear_32_937)"/>
<path d="M9.06357 6.89746C8.83988 6.40416 8.60447 6.39421 8.39176 6.38556C8.21757 6.37811 8.01844 6.37867 7.81951 6.37867C7.62038 6.37867 7.29685 6.453 7.02338 6.74928C6.74963 7.04583 5.97826 7.76249 5.97826 9.22007C5.97826 10.6777 7.04823 12.0864 7.19738 12.2843C7.34673 12.4817 9.26297 15.5686 12.2978 16.7562C14.8201 17.743 15.3334 17.5468 15.8808 17.4973C16.4283 17.448 17.6474 16.7808 17.8961 16.089C18.145 15.3973 18.145 14.8043 18.0704 14.6804C17.9958 14.557 17.7967 14.4829 17.4981 14.3348C17.1994 14.1866 15.7314 13.4698 15.4578 13.371C15.184 13.2722 14.985 13.2229 14.7859 13.5195C14.5868 13.8157 14.015 14.4829 13.8407 14.6804C13.6666 14.8785 13.4923 14.9031 13.1938 14.755C12.895 14.6063 11.9334 14.2938 10.7926 13.2846C9.90497 12.4993 9.30572 11.5296 9.13154 11.2329C8.95735 10.9367 9.11288 10.7762 9.2626 10.6285C9.39676 10.4958 9.56129 10.2826 9.71072 10.1096C9.8596 9.93663 9.90929 9.81318 10.0088 9.6156C10.1085 9.41783 10.0586 9.24481 9.9841 9.09663C9.90929 8.94844 9.32907 7.48332 9.06357 6.89756" fill="white"/>
<defs>
<linearGradient id="paint0_linear_32_937" x1="12" y1="23.9207" x2="12" y2="0" gradientUnits="userSpaceOnUse">
<stop stop-color="#F9F9F9"/>
<stop offset="1" stop-color="white"/>
</linearGradient>
</defs>
</svg>
